<?xml version="1.0" standalone="no"?>
<!DOCTYPE svg PUBLIC "-//W3C//DTD SVG 20010904//EN"
 "http://www.w3.org/TR/2001/REC-SVG-20010904/DTD/svg10.dtd">
<svg version="1.0" xmlns="http://www.w3.org/2000/svg"
 width="438.000000pt" height="1136.000000pt" viewBox="0 0 438.000000 1136.000000"
 preserveAspectRatio="xMidYMid meet">

<g transform="translate(0.000000,1136.000000) scale(0.100000,-0.100000)"
fill="#0068b4" stroke="none">
<path d="M0 10970 l0 -330 293 0 294 0 27 -122 c16 -68 41 -177 56 -243 48
-199 173 -736 270 -1150 50 -214 106 -454 125 -533 19 -79 35 -151 35 -160 0
-16 -41 -17 -550 -14 l-550 3 0 -330 0 -331 630 0 c496 0 631 -3 634 -12 2 -7
20 -83 40 -168 59 -256 166 -711 181 -775 8 -33 39 -168 70 -300 31 -132 69
-296 85 -365 16 -69 48 -204 71 -300 22 -96 47 -201 55 -233 8 -32 14 -63 14
-68 0 -5 -355 -9 -890 -9 l-890 0 0 -330 0 -330 969 0 969 0 30 -127 c17 -71
43 -182 58 -247 l28 -119 -26 -21 c-13 -12 -83 -67 -154 -122 -173 -136 -460
-362 -614 -484 -69 -54 -237 -186 -375 -295 -426 -334 -593 -466 -733 -577
-75 -60 -139 -108 -144 -108 -4 0 -8 -193 -8 -430 0 -275 4 -430 10 -430 5 0
76 -53 157 -118 82 -65 188 -149 238 -187 49 -39 99 -77 110 -87 11 -9 54 -43
95 -75 41 -33 181 -142 310 -244 129 -102 323 -254 430 -339 107 -84 236 -185
285 -225 94 -74 233 -184 545 -430 l184 -145 638 0 c351 0 638 4 638 8 0 13
-39 187 -69 312 -39 159 -56 231 -176 745 -57 248 -118 506 -134 575 -36 151
-88 373 -107 455 -7 33 -36 155 -63 270 -28 116 -59 251 -70 300 -11 50 -39
167 -61 260 -22 94 -57 240 -77 325 -54 237 -87 377 -136 585 -25 105 -75 318
-111 475 -37 157 -78 331 -91 388 -14 57 -25 105 -25 108 0 2 419 4 930 4
l930 0 0 734 0 735 -123 95 c-67 53 -189 148 -272 212 -82 64 -159 123 -170
132 -11 10 -38 31 -60 48 -112 86 -683 528 -767 593 -53 42 -170 133 -260 203
-89 69 -228 177 -308 239 -80 62 -212 165 -295 229 -82 64 -209 162 -281 218
-73 56 -137 102 -143 102 -6 0 -13 10 -16 23 -3 12 -23 99 -45 192 -23 94 -56
235 -75 315 -19 80 -52 222 -74 315 -94 401 -113 480 -155 660 -25 105 -61
260 -81 345 -20 85 -54 229 -75 320 -22 91 -64 273 -94 405 -31 132 -61 257
-66 278 l-11 37 -504 0 -505 0 0 -330z m1979 -3552 c31 -24 58 -45 61 -48 3
-3 34 -28 70 -55 36 -27 184 -142 330 -255 146 -113 407 -316 580 -450 173
-134 416 -322 540 -418 123 -96 232 -179 242 -186 17 -10 18 -31 18 -248 l0
-238 -725 0 c-410 0 -727 4 -730 9 -3 5 -32 126 -65 268 -60 256 -105 446
-155 658 -15 61 -37 157 -50 215 -13 58 -45 193 -70 300 -25 107 -59 254 -76
325 -16 72 -32 138 -35 148 -8 26 4 21 65 -25z m263 -3844 c15 -65 46 -198 69
-294 22 -96 51 -220 64 -275 28 -124 108 -465 141 -602 13 -56 46 -200 74
-320 28 -120 59 -254 70 -298 10 -44 64 -273 119 -510 55 -236 108 -457 116
-489 13 -48 14 -61 3 -67 -7 -5 -90 -9 -184 -9 -188 0 -168 -6 -270 76 -21 18
-82 65 -134 106 -114 89 -838 659 -930 732 -36 29 -101 81 -145 115 -44 35
-96 76 -115 91 -19 15 -123 97 -230 181 -107 84 -229 180 -271 213 -42 34 -91
73 -110 88 -22 18 -31 30 -24 37 6 5 145 115 310 245 165 130 345 272 400 315
195 154 460 363 495 389 19 15 68 54 110 87 41 32 129 102 195 154 66 52 138
109 160 127 22 18 44 32 49 30 6 -1 22 -56 38 -122z"/>
</g>
</svg>
