<?xml version="1.0" standalone="no"?>
<!DOCTYPE svg PUBLIC "-//W3C//DTD SVG 20010904//EN"
 "http://www.w3.org/TR/2001/REC-SVG-20010904/DTD/svg10.dtd">
<svg version="1.0" xmlns="http://www.w3.org/2000/svg"
 width="438.000000pt" height="1136.000000pt" viewBox="0 0 438.000000 1136.000000"
 preserveAspectRatio="xMidYMid meet">

<g transform="translate(0.000000,1136.000000) scale(0.100000,-0.100000)"
fill="#0068b4" stroke="none">
<path d="M3376 11285 c-3 -9 -19 -75 -36 -148 -29 -124 -43 -186 -140 -592
-20 -88 -45 -194 -55 -235 -26 -114 -51 -222 -85 -365 -17 -71 -44 -186 -60
-255 -57 -251 -284 -1216 -297 -1262 -2 -10 -10 -18 -16 -18 -13 -1 -17 -4
-378 -285 -134 -104 -293 -228 -354 -274 -60 -47 -153 -119 -206 -160 -53 -42
-111 -87 -129 -101 -18 -14 -85 -66 -149 -115 -64 -50 -128 -99 -142 -110 -15
-11 -165 -128 -334 -260 -169 -132 -340 -265 -380 -295 -149 -114 -330 -255
-341 -265 -6 -5 -70 -55 -142 -110 l-131 -100 -1 -732 0 -733 935 0 935 0 -5
-22 c-3 -13 -21 -88 -39 -168 -29 -119 -117 -500 -181 -775 -7 -33 -25 -107
-39 -165 -14 -58 -41 -175 -61 -260 -20 -85 -51 -220 -70 -300 -56 -236 -120
-510 -175 -745 -28 -121 -60 -256 -70 -300 -11 -44 -44 -188 -75 -320 -31
-132 -62 -267 -70 -300 -22 -93 -54 -231 -76 -330 -12 -49 -25 -103 -30 -120
-4 -16 -42 -176 -83 -355 -42 -179 -92 -392 -111 -474 -19 -82 -35 -155 -35
-162 0 -12 107 -14 639 -14 l638 0 44 35 c24 19 125 99 225 177 99 79 283 224
409 323 325 256 436 344 470 371 17 12 125 98 240 189 116 92 275 218 355 280
224 175 345 271 483 380 l126 100 1 427 0 427 -63 47 c-34 27 -93 73 -132 104
-38 31 -149 118 -245 194 -96 75 -182 143 -190 149 -8 7 -89 70 -180 141 -91
72 -185 146 -210 166 -42 34 -209 165 -495 390 -116 91 -254 200 -438 345 -82
65 -87 71 -81 100 3 16 28 126 55 244 27 118 49 215 49 217 0 2 434 4 965 4
l965 0 0 330 0 330 -885 0 c-487 0 -885 3 -885 6 0 6 9 46 74 319 32 137 106
454 342 1460 46 198 89 379 95 403 l12 42 623 0 624 0 0 330 0 330 -537 0
c-296 0 -543 0 -549 0 -8 0 -5 22 7 68 9 37 61 254 114 482 53 228 107 460
120 515 31 129 126 537 207 882 l63 273 288 0 287 0 0 330 0 330 -499 0 c-437
0 -500 -2 -505 -15z m-900 -3842 c-3 -10 -17 -67 -31 -128 -45 -196 -86 -367
-115 -490 -16 -66 -49 -210 -75 -320 -25 -110 -61 -265 -80 -345 -49 -207 -99
-419 -125 -532 l-22 -98 -729 -2 -729 -3 0 232 0 231 48 39 c27 21 64 49 82
63 95 72 266 205 270 210 3 3 43 35 90 70 47 35 117 89 156 120 39 30 156 120
258 200 103 80 294 228 424 328 274 212 407 316 500 389 72 56 87 63 78 36z
m67 -4021 c392 -309 967 -762 1206 -949 86 -68 156 -127 156 -132 0 -8 -315
-262 -564 -454 -29 -23 -58 -47 -65 -52 -6 -6 -58 -47 -116 -91 -58 -45 -186
-146 -286 -225 -99 -79 -196 -155 -214 -169 -18 -14 -126 -98 -239 -188 -113
-90 -244 -193 -291 -230 -47 -36 -128 -100 -180 -141 l-94 -76 -182 0 c-100 0
-185 2 -187 5 -5 5 32 165 198 870 94 400 259 1108 380 1630 114 489 112 480
120 480 3 0 164 -125 358 -278z"/>
</g>
</svg>
