<svg width="20px" height="15px" viewBox="0 0 17 13" fill="none" xmlns="http://www.w3.org/2000/svg">
<path d="M-2.90573e-07 9.85098V2.90356L5.57531 6.37727L-2.90573e-07 9.85098ZM16.8647 11.8372C16.6184 12.3784 16.0581 12.7545 15.4058 12.7545H1.59418C0.945408 12.7545 0.385102 12.3801 0.137041 11.844C0.0485716 11.6534 -2.90573e-07 11.4406 -2.90573e-07 11.2177L6.67337 7.05976L8.5 8.20008L10.3284 7.06146L17 11.2177C17 11.4372 16.9514 11.6466 16.8647 11.8372ZM17 2.90356V9.84928L11.4247 6.37727L17 2.90356ZM15.4058 0C16.0581 0 16.6184 0.377837 16.8647 0.91736C16.9514 1.10628 17 1.31562 17 1.53688L8.5 6.8317L-2.90573e-07 1.53688C-2.90573e-07 1.31392 0.0485716 1.10117 0.137041 0.910552C0.385102 0.374433 0.945408 0 1.59418 0H15.4058V0Z" fill="#0068b4"/>
</svg>
