<svg width="18px" height="25px" viewBox="0 0 12 20" fill="none" xmlns="http://www.w3.org/2000/svg">
<path d="M5.91597 17.568C5.88597 17.556 5.84997 17.57 5.83797 17.602C5.82597 17.634 5.83997 17.668 5.87197 17.68C5.98397 17.724 6.05597 17.83 6.05597 17.95C6.05597 18.11 5.92597 18.238 5.76797 18.238C5.60797 18.238 5.47997 18.108 5.47997 17.948C5.47997 17.832 5.54997 17.728 5.65597 17.682C5.68597 17.668 5.70197 17.634 5.68797 17.602C5.67397 17.572 5.63997 17.556 5.60797 17.57C5.45597 17.634 5.35797 17.782 5.35797 17.948C5.35797 18.174 5.54197 18.358 5.76797 18.358C5.99397 18.358 6.17797 18.174 6.17797 17.948C6.17597 17.78 6.07397 17.63 5.91597 17.568Z" fill="#0068b4"/>
<path d="M5.76599 18.0219C5.79999 18.0219 5.82599 17.9959 5.82599 17.9619V17.8019C5.82599 17.7679 5.79799 17.7419 5.76599 17.7419C5.73199 17.7419 5.70599 17.7679 5.70599 17.8019V17.9619C5.70599 17.9959 5.73199 18.0219 5.76599 18.0219Z" fill="#0068b4"/>
<path d="M10.21 0H1.322C0.592 0 0 0.592 0 1.322V18.278C0 19.008 0.592 19.6 1.322 19.6H10.21C10.94 19.6 11.532 19.008 11.532 18.278V1.322C11.532 0.592 10.94 0 10.21 0ZM9.178 1.156C9.306 1.156 9.41 1.26 9.41 1.388C9.41 1.516 9.306 1.62 9.178 1.62C9.05 1.62 8.944 1.516 8.944 1.388C8.944 1.26 9.05 1.156 9.178 1.156ZM4.148 1.224H7.382C7.472 1.224 7.546 1.298 7.546 1.388C7.546 1.478 7.472 1.552 7.382 1.552H4.148C4.058 1.552 3.984 1.478 3.984 1.388C3.984 1.298 4.058 1.224 4.148 1.224ZM2.024 1.224H3.092C3.182 1.224 3.256 1.298 3.256 1.388C3.256 1.478 3.182 1.552 3.092 1.552H2.024C1.934 1.552 1.86 1.478 1.86 1.388C1.86 1.298 1.934 1.224 2.024 1.224ZM5.744 18.792C5.284 18.792 4.912 18.42 4.912 17.96C4.912 17.5 5.284 17.128 5.744 17.128C6.202 17.128 6.576 17.5 6.576 17.96C6.576 18.42 6.202 18.792 5.744 18.792ZM9.748 15.598C9.748 15.798 9.586 15.962 9.384 15.962H2.148C1.946 15.962 1.784 15.8 1.784 15.598V2.546C1.784 2.346 1.946 2.182 2.148 2.182H9.384C9.586 2.182 9.748 2.344 9.748 2.546V15.598Z" fill="#0068b4"/>
</svg>
