<svg width="190" height="70" xmlns="http://www.w3.org/2000/svg" xmlns:xlink="http://www.w3.org/1999/xlink" xml:space="preserve" overflow="hidden"><defs><clipPath id="clip0"><rect x="979" y="332" width="190" height="70"/></clipPath></defs><g clip-path="url(#clip0)" transform="translate(-979 -332)"><path d="M1159.93 332 1159.93 341.122 1141.99 341.122 1141.99 377.273 1127.52 377.273 1127.52 341.122 1109.37 341.122 1109.37 332C1115.22 332 1121.07 332 1126.92 332 1128.55 332 1128.97 332 1129.62 333.113L1130.61 334.722 1134.65 341.247 1138.68 334.722C1139.02 334.185 1139.35 333.649 1139.68 333.113 1140.39 332 1141.07 332 1142.67 332L1159.93 332ZM1069.57 368.466 1102.69 368.466 1102.69 377.273C1092.49 377.273 1082.29 377.273 1072.09 377.273 1061.8 377.273 1051.96 374.452 1051.96 363.249L1051.96 332 1102.69 332 1102.69 340.996 1062.03 340.996 1062.03 348.941 1102.69 348.941 1102.69 361.154 1062.03 361.154C1062.03 361.964 1062.03 362.773 1062.03 363.583 1062.03 366.902 1064.48 368.466 1069.57 368.466ZM1031.28 332C1035.34 332 1039.4 332 1043.46 332 1044.05 332 1044.46 332.37 1044.46 333.016L1044.46 377.273C1032.59 377.273 1020.73 377.273 1008.86 377.273 1003.4 377.332 993.749 371.771 993.931 363.361L993.931 332 1006.03 332C1006.81 332 1007.3 332.457 1007.3 333.048 1007.3 344.181 1007.3 353.017 1007.3 364.235 1007.3 366.515 1007.53 368.466 1010.64 368.466L1031.28 368.466 1031.28 332Z" fill="#EA6903"/><path d="M986.375 385.742 989.831 385.742 989.831 395.267C989.831 396.208 989.727 397.102 989.521 397.939 989.315 398.78 988.992 399.514 988.551 400.143 988.111 400.772 987.65 401.211 987.168 401.468 986.495 401.821 985.687 402 984.747 402 984.202 402 983.608 401.944 982.964 401.836 982.321 401.728 981.781 401.512 981.349 401.189 980.916 400.865 980.52 400.407 980.163 399.811 979.803 399.216 979.558 398.602 979.425 397.969 979.212 396.953 979.105 396.052 979.105 395.267L979.105 385.742 982.56 385.742 982.56 395.494C982.56 396.365 982.73 397.046 983.066 397.533 983.405 398.025 983.874 398.27 984.473 398.27 985.064 398.27 985.531 398.029 985.87 397.545 986.206 397.065 986.375 396.38 986.375 395.494L986.375 385.742ZM1064.2 385.742 1073.46 385.742 1073.46 389.158 1067.67 389.158 1067.67 391.704 1073.03 391.704 1073.03 394.965 1067.67 394.965 1067.67 398.114 1073.63 398.114 1073.63 401.732 1064.2 401.732 1064.2 385.741ZM991.848 385.742 1001.62 385.742 1001.62 388.939 995.345 398.293 1001.85 398.293 1001.85 401.732 991.238 401.732 991.238 398.412 997.448 389.158 991.848 389.158 991.848 385.742ZM1003.42 385.742 1009.9 385.742C1010.98 385.742 1011.81 386.125 1012.39 386.888 1012.97 387.651 1013.26 388.597 1013.26 389.724 1013.26 390.67 1013.05 391.481 1012.64 392.155 1012.36 392.609 1011.96 392.963 1011.43 393.227 1012.23 393.502 1012.82 393.975 1013.2 394.649 1013.58 395.322 1013.77 396.167 1013.77 397.183 1013.77 398.013 1013.64 398.758 1013.37 399.421 1013.1 400.083 1012.73 400.604 1012.26 400.991 1011.97 401.23 1011.53 401.404 1010.94 401.512 1010.17 401.657 1009.65 401.732 1009.39 401.732L1003.42 401.732 1003.42 385.741ZM1006.91 392.017 1008.42 392.017C1008.96 392.017 1009.33 391.883 1009.54 391.619 1009.76 391.351 1009.86 390.967 1009.86 390.465 1009.86 390 1009.76 389.635 1009.54 389.374 1009.33 389.11 1008.96 388.98 1008.44 388.98L1006.91 388.98 1006.91 392.017ZM1006.91 398.293 1008.67 398.293C1009.27 398.293 1009.69 398.14 1009.93 397.839 1010.18 397.537 1010.3 397.135 1010.3 396.625 1010.3 396.152 1010.18 395.773 1009.94 395.486 1009.7 395.2 1009.27 395.054 1008.66 395.054L1006.91 395.054 1006.91 398.293ZM1015.57 385.741 1024.82 385.741 1024.82 389.158 1019.04 389.158 1019.04 391.704 1024.4 391.704 1024.4 394.965 1019.04 394.965 1019.04 398.114 1025 398.114 1025 401.732 1015.57 401.732 1015.57 385.741ZM1026.87 385.741 1030.33 385.741 1030.33 391.783 1033.95 385.741 1038.55 385.741 1034.47 391.749 1038.74 401.732 1034.49 401.732 1032.13 395.166 1030.33 397.839 1030.33 401.732 1026.87 401.732 1026.87 385.741ZM1039.88 385.741 1049.14 385.741 1049.14 389.158 1043.35 389.158 1043.35 391.704 1048.72 391.704 1048.72 394.965 1043.35 394.965 1043.35 398.114 1049.31 398.114 1049.31 401.732 1039.88 401.732 1039.88 385.741ZM1051.21 385.741 1054.43 385.741 1058.63 394.57 1058.63 385.741 1061.9 385.741 1061.9 401.732 1058.63 401.732 1054.46 392.951 1054.46 401.732 1051.21 401.732 1051.21 385.741ZM1075.54 401.732 1075.54 385.741 1081.3 385.741C1082.37 385.741 1083.19 385.872 1083.75 386.136 1084.32 386.397 1084.77 386.884 1085.12 387.591 1085.47 388.302 1085.64 389.17 1085.64 390.189 1085.64 391.075 1085.51 391.842 1085.24 392.486 1084.98 393.134 1084.61 393.655 1084.15 394.057 1083.85 394.31 1083.44 394.522 1082.93 394.69 1083.34 394.887 1083.64 395.081 1083.83 395.278 1083.95 395.408 1084.14 395.691 1084.38 396.119 1084.62 396.547 1084.78 396.878 1084.86 397.113L1086.55 401.732 1082.64 401.732 1080.79 396.856C1080.55 396.223 1080.35 395.814 1080.16 395.624 1079.91 395.378 1079.63 395.255 1079.31 395.255L1079.01 395.255 1079.01 401.732 1075.54 401.732ZM1079.01 392.24 1080.47 392.24C1080.63 392.24 1080.93 392.166 1081.39 392.021 1081.62 391.958 1081.8 391.79 1081.95 391.518 1082.09 391.247 1082.17 390.938 1082.17 390.588 1082.17 390.07 1082.05 389.672 1081.82 389.397 1081.59 389.117 1081.16 388.98 1080.53 388.98L1079.01 388.98 1079.01 392.24ZM1093 395.948 1093 392.62 1098.35 392.62 1098.35 399.421C1097.32 400.418 1096.42 401.099 1095.63 401.46 1094.85 401.821 1093.91 402 1092.84 402 1091.51 402 1090.42 401.676 1089.59 401.028 1088.75 400.385 1088.1 399.421 1087.64 398.14 1087.18 396.863 1086.95 395.393 1086.95 393.737 1086.95 391.991 1087.2 390.476 1087.7 389.185 1088.21 387.897 1088.95 386.918 1089.92 386.248 1090.68 385.73 1091.7 385.473 1092.98 385.473 1094.21 385.473 1095.14 385.634 1095.75 385.954 1096.37 386.274 1096.88 386.769 1097.28 387.442 1097.68 388.116 1097.99 388.969 1098.19 390L1094.86 390.856C1094.72 390.249 1094.49 389.784 1094.16 389.464 1093.83 389.14 1093.42 388.98 1092.91 388.98 1092.15 388.98 1091.55 389.356 1091.1 390.108 1090.64 390.859 1090.42 392.051 1090.42 393.677 1090.42 395.404 1090.65 396.64 1091.1 397.381 1091.56 398.121 1092.19 398.494 1093.01 398.494 1093.39 398.494 1093.76 398.415 1094.11 398.255 1094.46 398.095 1094.86 397.824 1095.31 397.444L1095.31 395.948 1093 395.948ZM1099.96 393.748C1099.96 391.139 1100.47 389.106 1101.48 387.655 1102.5 386.199 1103.92 385.473 1105.74 385.473 1107.6 385.473 1109.04 386.188 1110.05 387.614 1111.06 389.043 1111.56 391.046 1111.56 393.618 1111.56 395.486 1111.34 397.016 1110.9 398.211 1110.46 399.406 1109.82 400.336 1108.99 401.002 1108.16 401.669 1107.12 402 1105.88 402 1104.61 402 1103.57 401.713 1102.74 401.14 1101.91 400.563 1101.24 399.655 1100.73 398.412 1100.22 397.172 1099.96 395.616 1099.96 393.748ZM1103.41 393.759C1103.41 395.371 1103.62 396.532 1104.04 397.236 1104.47 397.939 1105.04 398.293 1105.76 398.293 1106.51 398.293 1107.09 397.946 1107.49 397.258 1107.9 396.566 1108.1 395.33 1108.1 393.539 1108.1 392.036 1107.89 390.938 1107.47 390.245 1107.04 389.549 1106.46 389.203 1105.73 389.203 1105.03 389.203 1104.47 389.557 1104.05 390.26 1103.62 390.964 1103.41 392.132 1103.41 393.759ZM1112.23 385.742 1122.76 385.742 1122.76 389.695 1119.22 389.695 1119.22 401.732 1115.77 401.732 1115.77 389.695 1112.23 389.695 1112.23 385.742ZM1131.66 399.097 1127.74 399.097 1127.18 401.732 1123.65 401.732 1127.86 385.742 1131.65 385.742 1135.85 401.732 1132.22 401.732 1131.66 399.097ZM1130.93 395.635 1129.71 389.888 1128.48 395.635 1130.93 395.635ZM1136.91 385.742 1141.47 385.742 1143.21 395.471 1144.95 385.742 1149.49 385.742 1149.49 401.732 1146.66 401.732 1146.66 389.542 1144.48 401.732 1141.92 401.732 1139.74 389.542 1139.74 401.732 1136.91 401.732 1136.91 385.742ZM1151.84 385.742 1155.31 385.742 1155.31 401.732 1151.84 401.732 1151.84 385.742ZM1157.83 401.732 1157.83 385.742 1163.59 385.742C1164.66 385.742 1165.48 385.872 1166.04 386.136 1166.61 386.397 1167.06 386.884 1167.41 387.591 1167.76 388.302 1167.93 389.17 1167.93 390.19 1167.93 391.075 1167.8 391.842 1167.53 392.486 1167.27 393.134 1166.9 393.655 1166.44 394.057 1166.14 394.31 1165.73 394.522 1165.22 394.69 1165.63 394.887 1165.93 395.081 1166.12 395.278 1166.25 395.408 1166.43 395.691 1166.67 396.119 1166.91 396.547 1167.07 396.878 1167.15 397.113L1168.84 401.732 1164.93 401.732 1163.08 396.856C1162.84 396.223 1162.64 395.814 1162.45 395.624 1162.2 395.378 1161.92 395.256 1161.6 395.256L1161.3 395.256 1161.3 401.732 1157.83 401.732ZM1161.3 392.24 1162.76 392.24C1162.92 392.24 1163.22 392.166 1163.68 392.021 1163.91 391.958 1164.09 391.79 1164.24 391.518 1164.38 391.247 1164.46 390.938 1164.46 390.588 1164.46 390.07 1164.34 389.672 1164.11 389.397 1163.88 389.118 1163.45 388.98 1162.82 388.98L1161.3 388.98 1161.3 392.241Z" fill="#31375A"/><path d="M979.749 383.109C979.346 383.109 979.02 382.7 979.02 382.196 979.02 381.692 979.346 381.283 979.749 381.283L979.749 383.109ZM1168.25 383.109 979.749 383.109 979.749 381.283 1168.25 381.283 1168.25 383.109ZM1168.25 381.283C1168.65 381.283 1168.98 381.692 1168.98 382.196 1168.98 382.7 1168.65 383.109 1168.25 383.109L1168.25 381.283Z" fill="#31375A"/></g></svg>