<svg width="445" height="61" xmlns="http://www.w3.org/2000/svg" xmlns:xlink="http://www.w3.org/1999/xlink" xml:space="preserve" overflow="hidden"><defs><clipPath id="clip0"><rect x="124" y="473" width="445" height="61"/></clipPath></defs><g clip-path="url(#clip0)" transform="translate(-124 -473)"><path d="M178.459 0.0227525 166.909 11.914 155.382 0.0227525 137.261 0.0227525 137.261 11.914 160.975 11.914 160.975 59.5245 172.866 59.5245 172.866 11.914 196.581 11.914 196.581 0.0227525 178.459 0.0227525Z" fill="#FF4E00" transform="matrix(1.00622 0 0 1 124 473)"/><path d="M46.8829 47.6103 19.3943 47.6103C15.4382 47.6103 12.0731 44.5637 11.8912 40.6075 11.8912 40.4938 11.8912 40.3574 11.8912 40.2437L11.8912 0 0 0 0 41.9263 17.6209 59.5016 58.7969 59.5016 58.7969 0.0227362 46.9056 0.0227362 46.9056 47.6103 46.8829 47.6103Z" fill="#FF4E00" transform="matrix(1.00622 0 0 1 124 473)"/><path d="M80.9423 40.6302C80.9423 40.5165 80.9423 40.3801 80.9423 40.2664L80.9423 35.6965 127.711 35.6965 127.711 23.8053 80.9423 23.8053 80.9423 11.914 127.711 11.914 127.711 0.0227525 80.9423 0.0227525 69.051 0.0227525 69.051 41.9717 86.6719 59.5245 91.3329 59.5245 91.6511 59.5245 127.711 59.5245 127.711 47.6332 88.4453 47.6332C84.4891 47.6332 81.1241 44.5864 80.9423 40.6302Z" fill="#FF4E00" transform="matrix(1.00622 0 0 1 124 473)"/><path d="M226.161 24.5783C224.797 24.5783 223.592 24.2827 222.545 23.7143 221.499 23.1458 220.705 22.3728 220.09 21.4179 219.498 20.463 219.044 19.3943 218.749 18.2575 218.453 17.1207 218.294 15.8929 218.294 14.5969 218.294 12.8689 218.544 11.2773 219.066 9.8222 219.568 8.36707 220.454 7.13929 221.682 6.13887 222.909 5.13847 224.411 4.63825 226.183 4.63825 227.911 4.63825 229.343 5.09299 230.526 6.00245 231.708 6.91193 232.435 8.16243 232.778 9.754L237.415 9.754C236.983 6.82097 235.733 4.57005 233.642 3.00123 231.549 1.4324 229.094 0.659359 226.274 0.659359 223.66 0.659359 221.386 1.29598 219.431 2.59197 217.475 3.86521 216.02 5.54773 215.066 7.63949 214.088 9.73126 213.61 12.0277 213.61 14.5742 213.61 18.7804 214.747 22.1682 217.021 24.7147 219.295 27.2612 222.296 28.5344 226.069 28.5344 229.389 28.5344 232.073 27.5568 234.164 25.6014 236.256 23.646 237.415 21.0313 237.666 17.7573L232.981 17.7573C232.391 22.3046 230.117 24.5783 226.161 24.5783Z" transform="matrix(1.00622 0 0 1 124 473)"/><path d="M251.057 8.04876C248.056 8.04876 245.669 8.98096 243.895 10.8226 242.123 12.6643 241.213 15.1426 241.213 18.2575 241.213 21.3951 242.099 23.8962 243.873 25.7378 245.645 27.5795 248.033 28.5117 251.057 28.5117 254.012 28.5117 256.378 27.5795 258.106 25.7378 259.833 23.8962 260.697 21.3951 260.697 18.2575 260.697 15.1426 259.833 12.6643 258.083 10.8226 256.332 8.98096 253.99 8.04876 251.057 8.04876ZM254.968 23.3278C254.012 24.5555 252.694 25.1694 251.035 25.1694 249.307 25.1694 247.965 24.5555 246.987 23.3278 246.01 22.1 245.532 20.4175 245.532 18.2348 245.532 16.1202 246.01 14.4378 246.987 13.2327 247.965 12.0049 249.283 11.391 250.99 11.391 252.694 11.391 254.012 12.0049 254.968 13.21 255.924 14.415 256.4 16.0748 256.4 18.2121 256.4 20.3947 255.924 22.1 254.968 23.3278Z" transform="matrix(1.00622 0 0 1 124 473)"/><path d="M275.613 8.09422C272.885 8.09422 270.771 9.20831 269.224 11.4592L269.224 8.61716 265.177 8.61716 265.177 27.9205 269.429 27.9205 269.429 17.5299C269.429 13.6192 270.998 11.6639 274.136 11.6639 274.954 11.6639 275.635 11.8003 276.159 12.0504 276.681 12.3232 277.069 12.7097 277.296 13.2327 277.523 13.7556 277.682 14.2786 277.774 14.7788 277.841 15.279 277.887 15.9384 277.887 16.7114L277.887 27.9205 282.139 27.9205 282.139 15.0516C282.139 12.8007 281.593 11.0955 280.502 9.8904 279.455 8.68537 277.818 8.09422 275.613 8.09422Z" transform="matrix(1.00622 0 0 1 124 473)"/><path d="M301.874 18.4393C301.464 18.0755 300.85 17.7346 300.032 17.3935 299.191 17.0524 298.554 16.8251 298.122 16.7114 297.69 16.5977 296.985 16.4385 296.008 16.2112 295.781 16.1657 295.462 16.0975 295.03 16.0065 294.598 15.9156 294.303 15.8474 294.12 15.8019 293.939 15.7564 293.688 15.6882 293.347 15.5973 293.029 15.5063 292.802 15.4381 292.666 15.3699 292.529 15.3017 292.348 15.2335 292.119 15.1198 291.892 15.0289 291.732 14.9152 291.643 14.8242 291.551 14.7333 291.46 14.6196 291.37 14.4832 291.256 14.3468 291.165 14.1649 291.119 13.983 291.073 13.8238 291.073 13.6192 291.073 13.3918 291.073 12.687 291.37 12.1413 291.961 11.7548 292.551 11.3455 293.415 11.1636 294.506 11.1636 297.053 11.1636 298.441 12.1868 298.69 14.2331L302.76 14.2331C302.76 12.164 302.009 10.618 300.51 9.59483 299.008 8.57167 297.053 8.07147 294.689 8.07147 292.21 8.07147 290.279 8.59441 288.891 9.61755 287.505 10.6634 286.8 12.0731 286.8 13.892 286.8 15.8701 287.686 17.2798 289.46 18.1211 290.209 18.4849 291.961 19.0078 294.689 19.6898 294.757 19.7127 294.849 19.7354 294.916 19.7354 294.984 19.7581 295.052 19.7581 295.098 19.7808 295.143 19.8035 295.211 19.8035 295.325 19.8264 295.962 19.9855 296.485 20.0992 296.872 20.2129 297.258 20.3266 297.668 20.4857 298.077 20.6904 298.509 20.8949 298.803 21.1677 298.986 21.4634 299.168 21.7589 299.259 22.1227 299.259 22.5547 299.259 23.3959 298.873 24.0781 298.122 24.601 297.372 25.1012 296.348 25.374 295.121 25.374 292.234 25.374 290.665 24.169 290.438 21.7362L286.368 21.7362C286.458 23.9189 287.254 25.6014 288.732 26.7382 290.209 27.875 292.302 28.4662 295.052 28.4662 297.622 28.4662 299.668 27.8978 301.191 26.7382 302.714 25.6014 303.465 24.0553 303.465 22.1 303.465 21.2814 303.306 20.5538 302.965 19.9172 302.624 19.2806 302.26 18.8031 301.874 18.4393Z" transform="matrix(1.00622 0 0 1 124 473)"/><path d="M313.266 2.8193 309.012 2.8193 309.012 8.61713 305.807 8.61713 305.807 11.7093 309.012 11.7093 309.012 20.9176C309.012 20.9859 309.012 21.0769 309.012 21.1677 309.012 21.2587 309.012 21.327 309.012 21.3951 309.012 21.4634 309.012 21.5315 309.012 21.6452 309.012 22.4182 309.012 22.964 309.012 23.2822 309.012 23.6006 309.036 24.0553 309.104 24.6464 309.172 25.2376 309.263 25.6696 309.399 25.8969 309.536 26.1243 309.741 26.4427 309.968 26.7836 310.217 27.1474 310.536 27.3975 310.9 27.5568 311.264 27.7159 311.74 27.8296 312.31 27.9433 312.877 28.057 313.515 28.1024 314.265 28.1024 315.334 28.1024 316.902 28.057 317.744 27.9433L317.744 24.5783C317.312 24.6237 316.153 24.6464 315.448 24.6464 314.902 24.6464 314.47 24.601 314.152 24.4873 313.833 24.3963 313.628 24.1918 313.493 23.9188 313.355 23.6233 313.288 23.3732 313.266 23.1231 313.242 22.8957 313.22 22.4638 313.22 21.8726L313.22 11.7093 317.995 11.7093 317.995 8.61713 313.22 8.61713 313.22 2.8193 313.266 2.8193Z" transform="matrix(1.00622 0 0 1 124 473)"/><path d="M324.678 12.4596 324.678 8.61713 320.677 8.61713 320.677 27.9205 324.906 27.9205 324.906 19.417C324.906 14.5968 326.77 12.2095 330.476 12.2095 330.727 12.2095 331.227 12.255 331.977 12.3232L331.977 8.25333 331.159 8.18513C328.202 8.16239 326.043 9.59479 324.678 12.4596Z" transform="matrix(1.00622 0 0 1 124 473)"/><path d="M347.734 18.826C347.734 20.5767 347.37 22.009 346.619 23.1458 345.868 24.2826 344.709 24.8511 343.094 24.8511 342.39 24.8511 341.798 24.7601 341.322 24.5555 340.844 24.3509 340.458 24.1235 340.207 23.8507 339.934 23.5779 339.753 23.1914 339.616 22.6684 339.48 22.1681 339.389 21.6908 339.367 21.2814 339.343 20.8722 339.321 20.3266 339.321 19.6444L339.321 8.61715 335.07 8.61715 335.07 21.3951C335.07 23.6688 335.637 25.3967 336.774 26.6018 337.911 27.8069 339.526 28.4207 341.663 28.4207 344.277 28.4207 346.392 27.2839 348.029 25.0102L348.029 27.8978 352.031 27.8978 352.031 8.59441 347.78 8.59441 347.78 18.826 347.734 18.826Z" transform="matrix(1.00622 0 0 1 124 473)"/><path d="M369.152 23.8961C368.333 24.6465 367.31 25.033 366.036 25.033 364.422 25.033 363.148 24.4419 362.24 23.2368 361.33 22.0317 360.874 20.372 360.874 18.2348 360.874 16.0975 361.352 14.3923 362.284 13.1645 363.24 11.9367 364.536 11.3228 366.173 11.3228 367.31 11.3228 368.264 11.6411 369.014 12.3005 369.765 12.9599 370.265 13.8921 370.516 15.0971L374.745 15.0971C374.494 12.8689 373.608 11.1409 372.107 9.89042 370.605 8.6399 368.606 8.02601 366.149 8.02601 363.218 8.02601 360.874 8.95822 359.148 10.8454 357.419 12.7325 356.555 15.2563 356.555 18.4622 356.555 21.4179 357.419 23.828 359.124 25.6696 360.83 27.5113 363.148 28.4207 366.036 28.4207 368.447 28.4207 370.47 27.7159 372.061 26.3062 373.654 24.8966 374.608 23.0094 374.904 20.6448L370.721 20.6448C370.47 22.0317 369.97 23.1231 369.152 23.8961Z" transform="matrix(1.00622 0 0 1 124 473)"/><path d="M384.566 2.22819 380.315 2.22819 380.315 8.59444 377.109 8.59444 377.109 11.6866 380.315 11.6866 380.315 20.8949C380.315 20.9632 380.315 21.0541 380.315 21.145 380.315 21.236 380.315 21.3042 380.315 21.3724 380.315 21.4407 380.315 21.5088 380.315 21.6225 380.315 22.3955 380.315 22.9413 380.315 23.2595 380.315 23.5779 380.338 24.0326 380.406 24.6237 380.474 25.2149 380.565 25.6469 380.701 25.8742 380.838 26.1016 381.043 26.4199 381.27 26.761 381.519 27.1248 381.838 27.3749 382.202 27.534 382.567 27.6932 383.043 27.8069 383.612 27.9205 384.18 28.0342 384.817 28.0797 385.567 28.0797 386.635 28.0797 387.591 28.0342 388.455 27.9205L388.455 24.5555C388.023 24.601 387.477 24.6237 386.772 24.6237 386.227 24.6237 385.794 24.5783 385.476 24.4646 385.157 24.3736 384.952 24.169 384.817 23.8962 384.68 23.6006 384.612 23.3505 384.59 23.1004 384.566 22.873 384.544 22.4411 384.544 21.8499L384.544 11.6866 389.319 11.6866 389.319 8.59444 384.544 8.59444 384.544 2.22819 384.566 2.22819Z" transform="matrix(1.00622 0 0 1 124 473)"/><path d="M396.708 7.73045 392.455 7.73045 392.455 27.9205 396.708 27.9205 396.708 7.73045Z" transform="matrix(1.00622 0 0 1 124 473)"/><path d="M411.169 8.04876C408.168 8.04876 405.78 8.98096 404.006 10.8226 402.232 12.6643 401.324 15.1426 401.324 18.2575 401.324 21.3951 402.21 23.8962 403.984 25.7378 405.757 27.5795 408.144 28.5117 411.169 28.5117 414.124 28.5117 416.489 27.5795 418.216 25.7378 419.944 23.8962 420.808 21.3951 420.808 18.2575 420.808 15.1426 419.944 12.6643 418.194 10.8226 416.444 8.98096 414.102 8.04876 411.169 8.04876ZM415.056 23.3278C414.102 24.5555 412.782 25.1694 411.123 25.1694 409.395 25.1694 408.053 24.5555 407.075 23.3278 406.097 22.1 405.621 20.4175 405.621 18.2348 405.621 16.1202 406.097 14.4378 407.075 13.2327 408.053 12.0049 409.373 11.391 411.077 11.391 412.782 11.391 414.102 12.0049 415.056 13.21 416.012 14.415 416.489 16.0748 416.489 18.2121 416.511 20.3947 416.034 22.1 415.056 23.3278Z" transform="matrix(1.00622 0 0 1 124 473)"/><path d="M440.635 9.8904C439.544 8.68537 437.907 8.09422 435.725 8.09422 432.995 8.09422 430.88 9.20831 429.335 11.4592L429.335 8.61716 425.289 8.61716 425.289 27.9205 429.54 27.9205 429.54 17.5299C429.54 13.6192 431.109 11.6639 434.245 11.6639 435.064 11.6639 435.747 11.8003 436.27 12.0504 436.792 12.3232 437.178 12.7097 437.407 13.2327 437.634 13.7556 437.794 14.2786 437.883 14.7788 437.953 15.279 437.997 15.9384 437.997 16.7114L437.997 27.9205 442.25 27.9205 442.25 15.0516C442.272 12.8007 441.726 11.0955 440.635 9.8904Z" transform="matrix(1.00622 0 0 1 124 473)"/><path d="M394.594 5.29765C396.049 5.29765 397.23 4.11682 397.23 2.66019 397.23 1.20358 396.049 0.0227525 394.594 0.0227525 393.137 0.0227525 391.955 1.20358 391.955 2.66019 391.955 4.11682 393.137 5.29765 394.594 5.29765Z" transform="matrix(1.00622 0 0 1 124 473)"/></g></svg>